<?xml version="1.0" encoding="utf-8"?>
<!-- Generator: Adobe Illustrator 25.2.3, SVG Export Plug-In . SVG Version: 6.00 Build 0)  -->
<svg version="1.1" id="Layer_1" xmlns="http://www.w3.org/2000/svg" xmlns:xlink="http://www.w3.org/1999/xlink" x="0px" y="0px"
	 viewBox="0 0 432 432" style="enable-background:new 0 0 432 432;" xml:space="preserve">
<style type="text/css">
	.Arched_x0020_Green{fill:url(#SVGID_1_);stroke:#FFFFFF;stroke-width:0.25;stroke-miterlimit:1;}
	.st0{fill:#1FB0C9;}
	.st1{fill:#FFFFFF;}
</style>
<linearGradient id="SVGID_1_" gradientUnits="userSpaceOnUse" x1="0" y1="432" x2="0.7071" y2="431.2929">
	<stop  offset="0" style="stop-color:#20AC4B"/>
	<stop  offset="0.9831" style="stop-color:#19361A"/>
</linearGradient>
<path class="st0" d="M432,216c0,119.3-96.7,216-216,216C96.7,432,0,335.3,0,216C0,96.7,96.7,0,216,0C335.3,0,432,96.7,432,216"/>
<path class="st1" d="M119.5,271.7c0-1.1-0.5-2.1-1.3-2.8c-1.7-1.7-4.3-1.7-6,0l-31.2,31.1v-51.2c0-2.3-1.9-4.2-4.3-4.2
	c-2.3,0-4.2,1.9-4.2,4.2v75.6c0,2.3,1.9,4.2,4.2,4.2c2.4,0,4.3-1.9,4.3-4.2V312l10.1-10.1l20.7,24.9c0.7,1.1,1.9,1.8,3.4,1.8
	c1.1,0,2-0.3,2.9-1c1.7-1.7,1.8-4.1,0.3-6l-21.2-25.8l21-21C119.1,274,119.5,272.8,119.5,271.7"/>
<path class="st1" d="M196.8,269c-8.1,0-15.7,4.1-20.4,10.8c-4.6-6.7-12.1-10.8-20.3-10.8c-6,0-11.7,2.2-16.1,6v-1.9
	c0-2.3-1.8-4.1-4.2-4.1c-2.2,0-4.1,1.9-4.1,4.1v52l0.1,0.5c0.6,1.7,2,2.9,3.7,3.1h0.7c0.2,0,0.6,0,1-0.2c0.4-0.1,0.8-0.4,1-0.5
	c1.2-0.7,1.9-2,1.9-3.4v-31c0-8.9,7.2-16.2,16.1-16.2c8.9,0,16.1,7.3,16.1,16.2l0.1,32.5l0.2,0.2l0.1,1.1h0.8l0.2,0.2
	c0.1,0.1,0.4,0.4,0.8,0.5c0.2,0.1,0.4,0.3,0.8,0.4c0.2,0.1,0.5,0.2,1,0.2h0.3c0.7,0,1.4-0.2,2.1-0.6c0.7-0.4,1.6-1.1,2-2.3l0.2-0.3
	v-31.9c0-8.9,7.2-16.2,16.1-16.2c8.9,0,16,7.1,16.2,16.2v31c0,2.3,1.8,4.1,4.1,4.1c2.3,0,4.2-1.8,4.2-4.1v-31
	C221.3,280,210.3,269,196.8,269"/>
<path class="st1" d="M286,244.5c-2.4,0-4.3,1.9-4.3,4.2v28.8c-5.4-5.6-12.6-8.7-20.4-8.7c-15.9,0-28.9,13.4-28.9,30
	c0,16.4,13,29.7,28.9,29.7c7.8,0,15-3.1,20.4-8.6v4.4c0,2.3,1.9,4.2,4.3,4.2c2.3,0,4.2-1.9,4.2-4.2v-75.6
	C290.2,246.5,288.3,244.5,286,244.5 M261.3,320c-11.2,0-20.4-9.5-20.4-21.2c0-11.8,9.1-21.4,20.4-21.4c11,0,19.9,9,20.4,20.5v1.8
	C281.2,311.1,272.3,320,261.3,320"/>
<path class="st1" d="M355.4,268.9c-2.4,0-4.3,1.9-4.3,4.2v4.4c-5.2-5.4-12.3-8.6-19.8-8.6c-15.5,0-28.1,13.3-28.1,29.6
	c0,16.4,12.6,29.7,28.1,29.7c7.5,0,14.7-3.1,19.8-8.5v2.9c0,11-8.7,19.7-19.8,19.7c-3.2,0-5.8-0.6-8.6-1.9c-2-1.2-4.7-0.3-5.7,1.8
	c-1.1,2-0.1,4.4,1.8,5.7c4.3,1.9,8.4,2.8,12.4,2.8c15.6,0,28.2-12.6,28.2-28.1v-49.5C359.5,270.8,357.6,268.9,355.4,268.9
	 M331.3,277.3c10.9,0,19.8,9.5,19.8,21.2c0,11.8-8.9,21.4-19.8,21.4c-10.8,0-19.7-9.6-19.7-21.4
	C311.6,286.8,320.4,277.3,331.3,277.3"/>
</svg>
